<?xml version="1.0" encoding="UTF-8" standalone="no"?>
<!-- Created with Inkscape (http://www.inkscape.org/) -->

<svg
   width="16"
   height="16"
   id="svg952"
   version="1.1"
   inkscape:version="1.3.2 (091e20ef0f, 2023-11-25)"
   sodipodi:docname="search.svg"
   xmlns:inkscape="http://www.inkscape.org/namespaces/inkscape"
   xmlns:sodipodi="http://sodipodi.sourceforge.net/DTD/sodipodi-0.dtd"
   xmlns="http://www.w3.org/2000/svg"
   xmlns:svg="http://www.w3.org/2000/svg"
   xmlns:rdf="http://www.w3.org/1999/02/22-rdf-syntax-ns#"
   xmlns:cc="http://creativecommons.org/ns#"
   xmlns:dc="http://purl.org/dc/elements/1.1/">
  <defs
     id="defs954" />
  <sodipodi:namedview
     id="base"
     pagecolor="#ffffff"
     bordercolor="#ffffff"
     borderopacity="1.0"
     inkscape:pageopacity="0.0"
     inkscape:pageshadow="2"
     inkscape:zoom="64"
     inkscape:cx="11.992188"
     inkscape:cy="8.1640625"
     inkscape:document-units="px"
     inkscape:current-layer="layer1"
     showgrid="true"
     inkscape:window-width="1366"
     inkscape:window-height="718"
     inkscape:window-x="-2"
     inkscape:window-y="23"
     inkscape:window-maximized="1"
     showguides="true"
     inkscape:guide-bbox="true"
     inkscape:showpageshadow="false"
     borderlayer="true"
     inkscape:pagecheckerboard="1"
     inkscape:deskcolor="#d1d1d1">
    <inkscape:grid
       type="xygrid"
       id="grid4063"
       originx="0"
       originy="0"
       spacingy="1"
       spacingx="1"
       units="px"
       visible="true" />
    <sodipodi:guide
       position="2,14.000017"
       orientation="12,0"
       id="guide3284"
       inkscape:locked="false" />
    <sodipodi:guide
       position="2,2.0000174"
       orientation="0,12"
       id="guide3286"
       inkscape:locked="false" />
    <sodipodi:guide
       position="14,2.0000174"
       orientation="-12,0"
       id="guide3288"
       inkscape:locked="false" />
    <sodipodi:guide
       position="14,14.000017"
       orientation="0,-12"
       id="guide3290"
       inkscape:locked="false" />
    <sodipodi:guide
       position="9,7.0000174"
       orientation="5,0"
       id="guide3304"
       inkscape:locked="false" />
    <sodipodi:guide
       position="9,2.0000174"
       orientation="0,5"
       id="guide3306"
       inkscape:locked="false" />
    <sodipodi:guide
       position="14,2.0000174"
       orientation="-5,0"
       id="guide3308"
       inkscape:locked="false" />
    <sodipodi:guide
       position="14,7.0000174"
       orientation="0,-5"
       id="guide3310"
       inkscape:locked="false" />
  </sodipodi:namedview>
  <metadata
     id="metadata957">
    <rdf:RDF>
      <cc:Work
         rdf:about="">
        <dc:format>image/svg+xml</dc:format>
        <dc:type
           rdf:resource="http://purl.org/dc/dcmitype/StillImage" />
        <dc:title />
      </cc:Work>
    </rdf:RDF>
  </metadata>
  <g
     inkscape:label="Capa 1"
     inkscape:groupmode="layer"
     id="layer1"
     transform="translate(0,-1036.3622)">
    <path
       style="fill:#000000;fill-opacity:1;stroke:none"
       d="m 7.2,1038.5692 c -2.4929958,0 -4.5,2.007 -4.5,4.5 0,2.493 2.0070042,4.5 4.5,4.5 2.492996,0 4.5,-2.007 4.5,-4.5 0,-2.493 -2.007004,-4.5 -4.5,-4.5 z m 0,1 c 1.938997,0 3.5,1.561 3.5,3.5 0,1.939 -1.561003,3.5 -3.5,3.5 -1.938997,0 -3.5,-1.561 -3.5,-3.5 0,-1.939 1.561003,-3.5 3.5,-3.5 z"
       id="path1" />
    <rect
       style="fill:#000000;fill-opacity:1;stroke:none"
       id="rect1"
       width="1"
       height="6.0710001"
       x="-732.97009"
       y="746.68787"
       transform="rotate(-45)" />
    <path
       style="fill:#ffffff;fill-opacity:1;stroke:none"
       d="M 6.5 2 C 4.0070042 2 2 4.0070042 2 6.5 C 2 8.9929958 4.0070042 11 6.5 11 C 8.9929958 11 11 8.9929958 11 6.5 C 11 4.0070042 8.9929958 2 6.5 2 z M 6.5 3 C 8.438997 3 10 4.561003 10 6.5 C 10 8.438997 8.438997 10 6.5 10 C 4.561003 10 3 8.438997 3 6.5 C 3 4.561003 4.561003 3 6.5 3 z "
       transform="translate(0,1036.3622)"
       id="rect3294" />
    <rect
       style="fill:#ffffff;fill-opacity:1;stroke:none"
       id="rect3312"
       width="1"
       height="6.0710001"
       x="-733.31873"
       y="746.04675"
       transform="matrix(0.70710678,-0.70710678,0.70710678,0.70710678,0,0)" />
  </g>
</svg>
