<?xml version="1.0" encoding="UTF-8" standalone="no"?>
<svg
   viewBox="0 0 24 24"
   version="1.1"
   id="svg1"
   sodipodi:docname="audio-volume-high.svg"
   inkscape:version="1.3.2 (091e20ef0f, 2023-11-25)"
   xmlns:inkscape="http://www.inkscape.org/namespaces/inkscape"
   xmlns:sodipodi="http://sodipodi.sourceforge.net/DTD/sodipodi-0.dtd"
   xmlns="http://www.w3.org/2000/svg"
   xmlns:svg="http://www.w3.org/2000/svg">
  <sodipodi:namedview
     id="namedview1"
     pagecolor="#ffffff"
     bordercolor="#111111"
     borderopacity="1"
     inkscape:showpageshadow="0"
     inkscape:pageopacity="0"
     inkscape:pagecheckerboard="1"
     inkscape:deskcolor="#d1d1d1"
     inkscape:zoom="59.25"
     inkscape:cx="17.004219"
     inkscape:cy="17.476793"
     inkscape:current-layer="svg1"
     showgrid="true">
    <inkscape:grid
       id="grid2"
       units="px"
       originx="0"
       originy="0"
       spacingx="1"
       spacingy="1"
       empcolor="#0099e5"
       empopacity="0.30196078"
       color="#0099e5"
       opacity="0.14901961"
       empspacing="5"
       dotted="false"
       gridanglex="30"
       gridanglez="30"
       visible="true" />
  </sodipodi:namedview>
  <defs
     id="defs3051">
    <style
       type="text/css"
       id="current-color-scheme">
      .ColorScheme-Text {
        color:#ffffff;
      }
      </style>
  </defs>
  <path
     style="fill:#000000;fill-opacity:1;stroke:none"
     d="M 13,5 8.011719,9.990234 V 10 v 1 4 1 0.0098 L 13,21 h 1.011719 V 20.597656 5.4023438 5 Z m 2.876953,0.5371094 -0.24414,0.9765625 A 7,7 0 0 1 20.011719,13 7,7 0 0 1 15.63086,19.478516 L 15.875,20.453125 A 8,8 0 0 0 21.011719,13 8,8 0 0 0 15.876953,5.5371094 Z M 16.335938,9.28125 15.796875,10.142578 A 4,4 0 0 1 17.011719,13 4,4 0 0 1 15.800781,15.861328 l 0.539063,0.863281 A 5,5 0 0 0 18.011719,13 5,5 0 0 0 16.335938,9.28125 Z M 5.011719,10 v 1 4 1 h 2 v -1 -4 -1 z"
     class="ColorScheme-Text"
     id="path2" />
  <path
     style="fill:currentColor;fill-opacity:1;stroke:none"
     d="M 11.988281 4 L 7 8.9902344 L 7 9 L 7 10 L 7 14 L 7 15 L 7 15.009766 L 11.988281 20 L 13 20 L 13 19.597656 L 13 4.4023438 L 13 4 L 11.988281 4 z M 14.865234 4.5371094 L 14.621094 5.5136719 A 7 7 0 0 1 19 12 A 7 7 0 0 1 14.619141 18.478516 L 14.863281 19.453125 A 8 8 0 0 0 20 12 A 8 8 0 0 0 14.865234 4.5371094 z M 15.324219 8.28125 L 14.785156 9.1425781 A 4 4 0 0 1 16 12 A 4 4 0 0 1 14.789062 14.861328 L 15.328125 15.724609 A 5 5 0 0 0 17 12 A 5 5 0 0 0 15.324219 8.28125 z M 4 9 L 4 10 L 4 14 L 4 15 L 6 15 L 6 14 L 6 10 L 6 9 L 4 9 z "
     class="ColorScheme-Text"
     id="path1" />
</svg>
