<?xml version="1.0" encoding="UTF-8" standalone="no"?>
<svg
   viewBox="0 0 24 24"
   version="1.1"
   id="svg2"
   sodipodi:docname="audio-volume-muted.svg"
   inkscape:version="1.3.2 (091e20ef0f, 2023-11-25)"
   xmlns:inkscape="http://www.inkscape.org/namespaces/inkscape"
   xmlns:sodipodi="http://sodipodi.sourceforge.net/DTD/sodipodi-0.dtd"
   xmlns="http://www.w3.org/2000/svg"
   xmlns:svg="http://www.w3.org/2000/svg">
  <sodipodi:namedview
     id="namedview2"
     pagecolor="#ffffff"
     bordercolor="#111111"
     borderopacity="1"
     inkscape:showpageshadow="0"
     inkscape:pageopacity="0"
     inkscape:pagecheckerboard="1"
     inkscape:deskcolor="#d1d1d1"
     inkscape:zoom="41.896077"
     inkscape:cx="13.235129"
     inkscape:cy="16.409651"
     inkscape:current-layer="svg2"
     showgrid="true">
    <inkscape:grid
       id="grid2"
       units="px"
       originx="0"
       originy="0"
       spacingx="1"
       spacingy="1"
       empcolor="#0099e5"
       empopacity="0.30196078"
       color="#0099e5"
       opacity="0.14901961"
       empspacing="5"
       dotted="false"
       gridanglex="30"
       gridanglez="30"
       visible="true" />
  </sodipodi:namedview>
  <defs
     id="defs3051">
    <style
       type="text/css"
       id="current-color-scheme">
      .ColorScheme-Text {
        color:#ffffff;
      }
      .ColorScheme-NegativeText {
        color:#da4453;
      }
      </style>
  </defs>
  <path
     style="fill:#000000;fill-opacity:0.50482;stroke:none"
     d="m 16,12 v 2 h 6 v -2 z"
     class="ColorScheme-NegativeText"
     id="path4" />
  <path
     style="fill:#000000;fill-opacity:1;stroke:none"
     d="M 12.988281,5 8,9.9902344 V 10 v 1 4 1 0.0098 L 12.988281,21 H 14 V 20.597656 5.4023438 5 Z M 5,10 v 1 4 1 h 2 v -1 -4 -1 z"
     class="ColorScheme-Text"
     id="path3" />
  <path
     style="fill:currentColor;fill-opacity:1;stroke:none"
     d="M 11.988281 4 L 7 8.9902344 L 7 9 L 7 10 L 7 14 L 7 15 L 7 15.009766 L 11.988281 20 L 13 20 L 13 19.597656 L 13 4.4023438 L 13 4 L 11.988281 4 z M 4 9 L 4 10 L 4 14 L 4 15 L 6 15 L 6 14 L 6 10 L 6 9 L 4 9 z "
     class="ColorScheme-Text"
     id="path1" />
  <path
     style="fill:#ff5061;fill-opacity:1;stroke:none"
     d="m 15,11 v 2 h 6 v -2 z"
     class="ColorScheme-NegativeText"
     id="path2" />
</svg>
