<?xml version="1.0" encoding="UTF-8" standalone="no"?>
<svg
   viewBox="0 0 22 22"
   version="1.1"
   id="svg3"
   sodipodi:docname="microphone-sensitivity-high.svg"
   inkscape:version="1.3.2 (091e20ef0f, 2023-11-25)"
   xmlns:inkscape="http://www.inkscape.org/namespaces/inkscape"
   xmlns:sodipodi="http://sodipodi.sourceforge.net/DTD/sodipodi-0.dtd"
   xmlns="http://www.w3.org/2000/svg"
   xmlns:svg="http://www.w3.org/2000/svg">
  <defs
     id="defs3" />
  <sodipodi:namedview
     id="namedview3"
     pagecolor="#ffffff"
     bordercolor="#111111"
     borderopacity="1"
     inkscape:showpageshadow="0"
     inkscape:pageopacity="0"
     inkscape:pagecheckerboard="1"
     inkscape:deskcolor="#d1d1d1"
     inkscape:zoom="32.318182"
     inkscape:cx="11"
     inkscape:cy="13.475387"
     inkscape:current-layer="svg3"
     showgrid="true">
    <inkscape:grid
       id="grid3"
       units="px"
       originx="0"
       originy="0"
       spacingx="1"
       spacingy="1"
       empcolor="#0099e5"
       empopacity="0.30196078"
       color="#0099e5"
       opacity="0.14901961"
       empspacing="5"
       dotted="false"
       gridanglex="30"
       gridanglez="30"
       visible="true" />
  </sodipodi:namedview>
  <style
     id="current-color-scheme"
     type="text/css">
        .ColorScheme-Text {
            color:#232629;
        }
    </style>
  <g
     class="ColorScheme-Text"
     fill="currentColor"
     id="g6"
     style="fill:#000000"
     transform="translate(1,1)">
    <path
       d="m 3,9 v 2 c 0,2.419003 1.7176959,4.43717 4,4.900391 V 18 H 5 v 1 h 6 V 18 H 9 V 15.900391 C 11.282304,15.43717 13,13.419003 13,11 V 9 h -1 v 2 c 0,2.209139 -1.790861,4 -4,4 C 5.790861,15 4,13.209139 4,11 V 9 Z M 8,3 C 6.343146,3 5,4.343146 5,6 v 5 c 0,1.656854 1.343146,3 3,3 1.656854,0 3,-1.343146 3,-3 V 6 C 11,4.343146 9.656854,3 8,3 Z"
       id="path4"
       style="fill:#000000" />
    <path
       d="m 14.279297,3.828125 -0.451172,0.892578 0.447266,0.226563 c 1.111155,0.560919 2.066402,1.437981 2.71875,2.498046 C 17.646489,8.505378 18,9.755292 18,11 c 0,1.244708 -0.353511,2.494622 -1.005859,3.554688 -0.652348,1.060065 -1.607595,1.937127 -2.71875,2.498046 l -0.447266,0.226563 0.451172,0.892578 0.445312,-0.224609 c 1.279348,-0.645825 2.370002,-1.648617 3.121094,-2.869141 C 18.596795,13.857601 19,12.433115 19,11 19,9.566885 18.596795,8.142399 17.845703,6.921875 17.094611,5.701351 16.003957,4.698559 14.724609,4.052734 Z"
       id="path5"
       style="fill:#000000" />
    <path
       d="m 13.21875,6.550781 -0.4375,0.898438 C 13.440254,7.770483 14.011826,8.284546 14.400391,8.90625 14.788955,9.527954 15,10.266858 15,11 c 0,0.733142 -0.211045,1.472047 -0.599609,2.09375 -0.388565,0.621703 -0.960137,1.135767 -1.619141,1.457031 l 0.4375,0.898438 c 0.830592,-0.404914 1.53956,-1.042593 2.029297,-1.826172 C 15.737784,12.839468 16,11.924034 16,11 16,10.075966 15.737784,9.160532 15.248047,8.376953 14.75831,7.593374 14.049342,6.955695 13.21875,6.550781 Z"
       id="path6"
       style="fill:#000000" />
  </g>
  <g
     class="ColorScheme-Text"
     fill="currentColor"
     id="g3"
     style="fill:#ffffff">
    <path
       d="m3 9v2c0 2.419003 1.7176959 4.43717 4 4.900391v2.099609h-2v1h6v-1h-2v-2.099609c2.282304-.463221 4-2.481388 4-4.900391v-2h-1v2c0 2.209139-1.790861 4-4 4s-4-1.790861-4-4v-2zm5-6c-1.656854 0-3 1.343146-3 3v5c0 1.656854 1.343146 3 3 3s3-1.343146 3-3v-5c0-1.656854-1.343146-3-3-3z"
       id="path1"
       style="fill:#ffffff" />
    <path
       d="m14.279297 3.828125-.451172.892578.447266.226563c1.111155.560919 2.066402 1.437981 2.71875 2.498046.652348 1.060066 1.005859 2.30998 1.005859 3.554688s-.353511 2.494622-1.005859 3.554688c-.652348 1.060065-1.607595 1.937127-2.71875 2.498046l-.447266.226563.451172.892578.445312-.224609c1.279348-.645825 2.370002-1.648617 3.121094-2.869141s1.154297-2.64501 1.154297-4.078125-.403205-2.857601-1.154297-4.078125-1.841746-2.223316-3.121094-2.869141z"
       id="path2"
       style="fill:#ffffff" />
    <path
       d="m13.21875 6.550781-.4375.898438c.659004.321264 1.230576.835327 1.619141 1.457031.388564.621704.599609 1.360608.599609 2.09375s-.211045 1.472047-.599609 2.09375c-.388565.621703-.960137 1.135767-1.619141 1.457031l.4375.898438c.830592-.404914 1.53956-1.042593 2.029297-1.826172s.751953-1.699013.751953-2.623047-.262216-1.839468-.751953-2.623047-1.198705-1.421258-2.029297-1.826172z"
       id="path3"
       style="fill:#ffffff" />
  </g>
</svg>
