<?xml version="1.0" encoding="UTF-8" standalone="no"?>
<svg
   width="22"
   height="22"
   version="1.1"
   id="svg3"
   sodipodi:docname="notification-active.svg"
   inkscape:version="1.4.1 (93de688d07, 2025-03-30)"
   xmlns:inkscape="http://www.inkscape.org/namespaces/inkscape"
   xmlns:sodipodi="http://sodipodi.sourceforge.net/DTD/sodipodi-0.dtd"
   xmlns="http://www.w3.org/2000/svg"
   xmlns:svg="http://www.w3.org/2000/svg">
  <defs
     id="defs3" />
  <sodipodi:namedview
     id="namedview3"
     pagecolor="#ffffff"
     bordercolor="#000000"
     borderopacity="0.25"
     inkscape:showpageshadow="2"
     inkscape:pageopacity="0.0"
     inkscape:pagecheckerboard="0"
     inkscape:deskcolor="#d1d1d1"
     inkscape:current-layer="svg3" />
  <style
     type="text/css"
     id="current-color-scheme">
        .ColorScheme-Text {
            color:#232629;
        }
        .ColorScheme-NegativeText {
            color:#da4453;
        }
    </style>
  <g
     id="notification-active"
     transform="translate(-1 39) translate(0,-40)">
    <path
       d="m1 1h22v22h-22z"
       fill="none"
       id="path1" />
    <path
       d="m6.3457031 3.345703a7.9999995 7.9999995 0 0 0 -2.3457031 5.654297h1a7 7 0 0 1 2.0527344-4.947266zm11.3085939 0-.707031.707031a7 7 0 0 1 2.052734 4.947266h1a7.9999995 7.9999995 0 0 0 -2.345703-5.654297zm-1.416016 1.416016-.708984.708984a5 5 0 0 1 1.470703 3.529297h1a6 6 0 0 0 -1.761719-4.238281zm-8.472656.003906a6 6 0 0 0 -1.765625 4.234375h1a5 5 0 0 1 1.4667969-3.533203z"
       class="ColorScheme-Text"
       fill-rule="evenodd"
       id="path2"
       style="fill:currentColor" />
    <path
       d="m10.269531 17a2 2 0 0 0-0.269531 1 2 2 0 0 0 2 2 2 2 0 0 0 2-2 2 2 0 0 0-0.271484-1zm1.730469-13a1 1 0 0 0-1 1 1 1 0 0 0 0.0098 0.128906 3.9999999 3.9999999 0 0 0-3.0098 3.871094c0 3-1 4-3 6v1h14v-1c-2-2-3-3-3-6a3.9999999 3.9999999 0 0 0-3.009766-3.871094 1 1 0 0 0 0.009766-0.128906 1 1 0 0 0-1-1zm0 2a3 3 0 0 1 3 3c0 3 0.585938 4 2.585938 6h-11.171876c2-2 2.5859375-3 2.5859375-6a3 3 0 0 1 3-3z"
       class="ColorScheme-Text"
       fill-rule="evenodd"
       id="path3"
       style="fill:currentColor;fill-opacity:1" />
  </g>
</svg>
