<?xml version="1.0" encoding="UTF-8" standalone="no"?>
<svg
   viewBox="0 0 22 22"
   version="1.1"
   id="svg1"
   sodipodi:docname="window-pin.svg"
   inkscape:version="1.3.2 (091e20ef0f, 2023-11-25)"
   xmlns:inkscape="http://www.inkscape.org/namespaces/inkscape"
   xmlns:sodipodi="http://sodipodi.sourceforge.net/DTD/sodipodi-0.dtd"
   xmlns="http://www.w3.org/2000/svg"
   xmlns:svg="http://www.w3.org/2000/svg">
  <sodipodi:namedview
     id="namedview1"
     pagecolor="#ffffff"
     bordercolor="#111111"
     borderopacity="1"
     inkscape:showpageshadow="0"
     inkscape:pageopacity="0"
     inkscape:pagecheckerboard="1"
     inkscape:deskcolor="#d1d1d1"
     inkscape:zoom="32.318182"
     inkscape:cx="11"
     inkscape:cy="13.475387"
     inkscape:current-layer="svg1"
     showgrid="true">
    <inkscape:grid
       id="grid1"
       units="px"
       originx="0"
       originy="0"
       spacingx="1"
       spacingy="1"
       empcolor="#0099e5"
       empopacity="0.30196078"
       color="#0099e5"
       opacity="0.14901961"
       empspacing="5"
       dotted="false"
       gridanglex="30"
       gridanglez="30"
       visible="true" />
  </sodipodi:namedview>
  <defs
     id="defs3051">
    <style
       type="text/css"
       id="current-color-scheme">
      .ColorScheme-Text {
        color:#363636;
      }
      </style>
  </defs>
  <path
     style="fill:#000000;fill-opacity:1;stroke:none"
     d="M 14.285156,4 C 13.506655,4.7785032 13.063294,6.1686871 13.96875,7.6875 l -4.25,2.84375 C 9.1903434,10.318042 8.6231574,10.159067 8.0625,10.15625 7.33374,10.152557 6.9101563,10.232422 6.2851562,10.857422 L 8.5722656,13.671875 5.1425781,17.714844 4,20 l 2.2851562,-1.142578 4.0976568,-3.429688 2.759765,2.28711 c 1.106965,-1.106965 0.822171,-2.222611 0.326172,-3.433594 l 2.84375,-4.25 C 17.831311,10.936706 19.221497,10.493347 20,9.7148438 Z"
     class="ColorScheme-Text"
     id="path2" />
  <path
     style="fill:#ffffff;fill-opacity:1;stroke:none"
     d="M 13.285156 3 C 12.506655 3.7785032 12.063294 5.1686871 12.96875 6.6875 L 8.71875 9.53125 C 8.1903434 9.318042 7.6231574 9.159067 7.0625 9.15625 C 6.33374 9.152557 5.9101563 9.2324219 5.2851562 9.8574219 L 7.5722656 12.671875 L 4.1425781 16.714844 L 3 19 L 5.2851562 17.857422 L 9.3828125 14.427734 L 12.142578 16.714844 C 13.249543 15.607879 12.964749 14.492233 12.46875 13.28125 L 15.3125 9.03125 C 16.831311 9.936706 18.221497 9.4933468 19 8.7148438 L 13.285156 3 z "
     class="ColorScheme-Text"
     id="path1" />
</svg>
